<?xml version="1.0" encoding="utf-8"?>
<!-- Generator: Adobe Illustrator 19.2.1, SVG Export Plug-In . SVG Version: 6.00 Build 0)  -->
<svg version="1.1" id="Calque_1" xmlns="http://www.w3.org/2000/svg" xmlns:xlink="http://www.w3.org/1999/xlink" x="0px" y="0px"
	 viewBox="0 0 732.7 173.5" style="enable-background:new 0 0 732.7 173.5;" xml:space="preserve">
<style type="text/css">
	.st0{fill-rule:evenodd;clip-rule:evenodd;}
	.st1{fill-rule:evenodd;clip-rule:evenodd;fill:#81A61B;}
	.st2{fill-rule:evenodd;clip-rule:evenodd;fill:#FFFFFF;}
	.st3{fill:#FFFFFF;}
	.st4{fill:#81A61B;}
	.st5{fill:#FFFFFF;stroke:#FF0000;}
</style>
<g>
	<g>
		<path class="st0" d="M-1215.8,19.7c1.5,0.4,4.7,0.4,6.2,0v-6.5h3.8v6.5c1.5,0.4,4.7,0.4,6.2,0v-6.5h3.8v22.6c0,7.4,0,16.8,0,22.3
			c0,4-2.8,7.7-4.8,11c-5.9,9.7-18.4,24.4-20.4,26.4c-2,2-4.3,4.3-4.3,4.3s-4.8,4.8-8.6,5.8c8-8.9,14.1-22,14.2-39.1
			c0.1-16.8-0.1-35.8,0-53.3h3.8V19.7z"/>
		<path class="st1" d="M-1195.7,74.7c3-7.8,9.2-12.5,19-13.4c1.1-0.1,3.6,0,3.6,0c7.1,0.4,13.6,4.3,19,10.6
			c4.1-6,10.5-9.7,19.7-10.6c1.3-0.1,2.4,0,2.4,0c14.5,1.6,23.4,12.3,23.3,23.8c0,1.7,0,35.5,0,35.5c-1,3.8-8.5,3.8-8.6-0.7
			c-0.2-11.5,0.3-23.7-0.2-34.8c-0.7-8.9-5.8-13.1-14.2-14.6c-1.4-0.2-3.7-0.2-4.8,0c-7.6,1.4-12,6.4-13.2,14.4
			c-0.6,11-0.1,23.1-0.2,34.6c0.2,5-7.8,5.2-8.6,1V89.6c0-11.1-4.4-17.8-14.2-19.2c-2.3-0.2-2.6-0.2-4.6,0
			c-11.9,1.4-14.7,11.8-14.2,25.7C-1193.3,89.3-1194.8,82.3-1195.7,74.7"/>
		<path class="st0" d="M-1195.7,74.7c0.9,7.6,2.4,14.6,4.1,21.4c2.8,10.3,6.8,19.3,11.8,27.4h-12h-42.5c-9.6-0.2-16.4-3.7-21.4-7.9
			c-5-4.2-10.4-13.8-10.3-23c-0.2-13.3,9-22.1,10.8-23.5c3.9-3.2,10-6.8,18.7-7.4c0,0,1.5-0.1,2.9,0c4.5,0.5,10.5,0.9,10.6,5.8
			c0,2.8-2.3,4.8-6.2,4.8c-3,0-1.9,0-7,0.2c-12.7,0.6-20.1,10.8-19,22.6c1,10.3,11.3,20.9,25.2,17.3c6.1-1.6,16.7-11.7,17.8-13
			C-1205.4,92.3-1200.5,83.5-1195.7,74.7"/>
	</g>
</g>
<g>
	<g>
		<g>
			<path class="st2" d="M-1005.8,19.7c1.5,0.4,4.7,0.4,6.2,0v-6.5h3.8v6.5c1.5,0.4,4.7,0.4,6.2,0v-6.5h3.8v22.6c0,7.4,0,16.8,0,22.3
				c0,4-2.8,7.7-4.8,11c-5.9,9.7-18.4,24.4-20.4,26.4c-2,2-4.3,4.3-4.3,4.3s-4.8,4.8-8.6,5.8c8-8.9,14.1-22,14.2-39.1
				c0.1-16.8-0.1-35.8,0-53.3h3.8V19.7z"/>
			<path class="st1" d="M-985.7,74.7c3-7.8,9.2-12.5,19-13.4c1.1-0.1,3.6,0,3.6,0c7.1,0.4,13.6,4.3,19,10.6
				c4.1-6,10.5-9.7,19.7-10.6c1.3-0.1,2.4,0,2.4,0c14.5,1.6,23.4,12.3,23.3,23.8c0,1.7,0,35.5,0,35.5c-1,3.8-8.5,3.8-8.6-0.7
				c-0.2-11.5,0.3-23.7-0.2-34.8c-0.7-8.9-5.8-13.1-14.2-14.6c-1.4-0.2-3.7-0.2-4.8,0c-7.6,1.4-12,6.4-13.2,14.4
				c-0.6,11-0.1,23.1-0.2,34.6c0.2,5-7.8,5.2-8.6,1V89.6c0-11.1-4.4-17.8-14.2-19.2c-2.3-0.2-2.6-0.2-4.6,0
				c-11.9,1.4-14.7,11.8-14.2,25.7C-983.3,89.3-984.8,82.3-985.7,74.7"/>
			<path class="st2" d="M-985.7,74.7c0.9,7.6,2.4,14.6,4.1,21.4c2.8,10.3,6.8,19.3,11.8,27.4h-12h-42.5c-9.6-0.2-16.4-3.7-21.4-7.9
				c-5-4.2-10.4-13.8-10.3-23c-0.2-13.3,9-22.1,10.8-23.5c3.9-3.2,10-6.8,18.7-7.4c0,0,1.5-0.1,2.9,0c4.5,0.5,10.5,0.9,10.6,5.8
				c0,2.8-2.3,4.8-6.2,4.8c-3,0-1.9,0-7,0.2c-12.7,0.6-20.1,10.8-19,22.6c1,10.3,11.3,20.9,25.2,17.3c6.1-1.6,16.7-11.7,17.8-13
				C-995.4,92.3-990.5,83.5-985.7,74.7"/>
		</g>
	</g>
	<g>
		<path class="st3" d="M-1038.5,127.1c0-0.4,0.1-0.7,0.4-1c0.3-0.3,0.6-0.4,1-0.4s0.7,0.1,1,0.4c0.3,0.3,0.4,0.6,0.4,1v16.8
			c0,2.7-1,5-2.9,6.9c-1.9,1.9-4.2,2.9-6.9,2.9s-5-1-6.9-2.9c-1.9-1.9-2.9-4.2-2.9-6.9s1-5,2.9-6.9c1.9-1.9,4.2-2.9,6.9-2.9
			s5,1,6.9,2.9c0,0,0,0,0.1,0.1V127.1z M-1038.5,143.9c0-1.9-0.7-3.6-2-5s-3-2-5-2s-3.6,0.7-5,2s-2,3-2,5c0,1.9,0.7,3.6,2,5s3,2,5,2
			s3.6-0.7,5-2S-1038.5,145.9-1038.5,143.9z"/>
		<path class="st3" d="M-1016.1,150.8c-2,2-4.3,2.9-7,2.9c-2.7,0-5-1-6.9-2.9c-1.9-1.9-2.9-4.2-2.9-6.9s1-5,2.9-6.9
			c1.9-1.9,4.2-2.9,6.9-2.9c2.7,0,5,1,6.9,2.9c1.9,1.9,2.9,4.2,2.9,6.9v8.4c0,0.4-0.1,0.7-0.4,1c-0.3,0.3-0.6,0.4-1,0.4
			s-0.7-0.1-1-0.4c-0.3-0.3-0.4-0.6-0.4-1V150.8z M-1023.1,136.9c-1.9,0-3.6,0.7-5,2s-2,3-2,5c0,1.9,0.7,3.6,2,5s3,2,5,2
			c1.9,0,3.6-0.7,5-2c1.4-1.4,2-3,2-5c0-1.9-0.7-3.6-2-5C-1019.5,137.6-1021.2,136.9-1023.1,136.9z"/>
		<path class="st3" d="M-1010.5,135.5c0-0.4,0.1-0.7,0.4-1s0.6-0.4,1-0.4s0.7,0.1,1,0.4c0.3,0.3,0.4,0.6,0.4,1v1.5
			c2-2,4.3-2.9,7-2.9c1.4,0,2.6,0.2,3.8,0.7c0.2,0.1,0.4,0.2,0.6,0.4c0.3,0.3,0.4,0.6,0.4,1c0,0.4-0.1,0.7-0.4,1
			c-0.3,0.3-0.6,0.4-1,0.4c-0.2,0-0.4,0-0.6-0.1c-0.8-0.4-1.7-0.5-2.7-0.5c-1.9,0-3.6,0.7-5,2s-2,3-2,5v8.4c0,0.4-0.1,0.7-0.4,1
			c-0.3,0.3-0.6,0.4-1,0.4s-0.7-0.1-1-0.4s-0.4-0.6-0.4-1V135.5z"/>
		<path class="st3" d="M-990.9,142l11.8-7.7c0.2-0.1,0.5-0.2,0.8-0.2c0.4,0,0.7,0.1,1,0.4c0.3,0.3,0.4,0.6,0.4,1
			c0,0.4-0.1,0.7-0.4,1c-0.1,0.1-0.1,0.1-0.2,0.2l-8.1,5.3l8.3,9.4c0.3,0.3,0.4,0.6,0.4,1c0,0.4-0.1,0.7-0.4,1
			c-0.3,0.3-0.6,0.4-1,0.4s-0.7-0.1-1-0.4l-8.7-9.8l-2.9,1.9v6.9c0,0.4-0.1,0.7-0.4,1c-0.3,0.3-0.6,0.4-1,0.4s-0.7-0.1-1-0.4
			s-0.4-0.6-0.4-1v-25.2c0-0.4,0.1-0.7,0.4-1s0.6-0.4,1-0.4s0.7,0.1,1,0.4c0.3,0.3,0.4,0.6,0.4,1V142z"/>
		<path class="st4" d="M-971.3,152.3c0,0.4-0.1,0.7-0.4,1s-0.6,0.4-1,0.4c-0.4,0-0.7-0.1-1-0.4s-0.4-0.6-0.4-1v-16.8
			c0-0.4,0.1-0.7,0.4-1s0.6-0.4,1-0.4c0.4,0,0.7,0.1,1,0.4s0.4,0.6,0.4,1v0.4c1.4-1.2,3-1.8,4.9-1.8c2.1,0,3.9,0.8,5.4,2.3
			c0.3,0.3,0.6,0.6,0.9,1c0.3-0.3,0.5-0.7,0.9-1c1.5-1.5,3.3-2.3,5.4-2.3s3.9,0.8,5.4,2.3c1.5,1.5,2.3,3.3,2.3,5.4v10.5
			c0,0.4-0.1,0.7-0.4,1s-0.6,0.4-1,0.4c-0.4,0-0.7-0.1-1-0.4c-0.3-0.3-0.4-0.6-0.4-1v-10.5c0-1.4-0.5-2.5-1.4-3.5s-2.1-1.4-3.5-1.4
			s-2.5,0.5-3.5,1.4c-1,1-1.4,2.1-1.4,3.5v10.5c0,0.4-0.1,0.7-0.4,1c-0.3,0.3-0.6,0.4-1,0.4s-0.7-0.1-1-0.4c-0.3-0.3-0.4-0.6-0.4-1
			v-10.5c0-1.4-0.5-2.5-1.4-3.5c-1-1-2.1-1.4-3.5-1.4s-2.5,0.5-3.5,1.4s-1.4,2.1-1.4,3.5V152.3z"/>
		<path class="st4" d="M-938.7,129.9c0,0.5-0.2,0.9-0.5,1.2c-0.3,0.3-0.8,0.5-1.2,0.5s-0.9-0.2-1.2-0.5c-0.3-0.3-0.5-0.8-0.5-1.2
			s0.2-0.9,0.5-1.2c0.3-0.3,0.8-0.5,1.2-0.5s0.9,0.2,1.2,0.5C-938.9,129-938.7,129.4-938.7,129.9z M-941.9,135.5
			c0-0.4,0.1-0.7,0.4-1c0.3-0.3,0.6-0.4,1-0.4c0.4,0,0.7,0.1,1,0.4s0.4,0.6,0.4,1v16.8c0,0.4-0.1,0.7-0.4,1s-0.6,0.4-1,0.4
			c-0.4,0-0.7-0.1-1-0.4c-0.3-0.3-0.4-0.6-0.4-1V135.5z"/>
		<path class="st4" d="M-934.9,135.5c0-0.4,0.1-0.7,0.4-1s0.6-0.4,1-0.4c0.4,0,0.7,0.1,1,0.4s0.4,0.6,0.4,1v1.5c2-2,4.3-2.9,7-2.9
			c1.4,0,2.6,0.2,3.8,0.7c0.2,0.1,0.4,0.2,0.6,0.4c0.3,0.3,0.4,0.6,0.4,1c0,0.4-0.1,0.7-0.4,1c-0.3,0.3-0.6,0.4-1,0.4
			c-0.2,0-0.4,0-0.6-0.1c-0.8-0.4-1.7-0.5-2.7-0.5c-1.9,0-3.6,0.7-5,2s-2,3-2,5v8.4c0,0.4-0.1,0.7-0.4,1s-0.6,0.4-1,0.4
			c-0.4,0-0.7-0.1-1-0.4s-0.4-0.6-0.4-1V135.5z"/>
		<path class="st4" d="M-901.3,150.8c-2,2-4.3,2.9-7,2.9c-2.7,0-5-1-6.9-2.9c-1.9-1.9-2.9-4.2-2.9-6.9s1-5,2.9-6.9s4.2-2.9,6.9-2.9
			c2.7,0,5,1,6.9,2.9c1.9,1.9,2.9,4.2,2.9,6.9v8.4c0,0.4-0.1,0.7-0.4,1s-0.6,0.4-1,0.4c-0.4,0-0.7-0.1-1-0.4s-0.4-0.6-0.4-1V150.8z
			 M-908.3,136.9c-1.9,0-3.6,0.7-5,2s-2,3-2,5c0,1.9,0.7,3.6,2,5s3,2,5,2c1.9,0,3.6-0.7,5-2s2-3,2-5c0-1.9-0.7-3.6-2-5
			S-906.3,136.9-908.3,136.9z"/>
	</g>
</g>
<g>
	<g>
		<g>
			<path class="st0" d="M-792.3,28.3c1.5,0.4,4.7,0.4,6.2,0v-6.5h3.8v6.5c1.5,0.4,4.7,0.4,6.2,0v-6.5h3.8v22.6c0,7.4,0,16.8,0,22.3
				c0,4-2.8,7.7-4.8,11c-5.9,9.7-18.4,24.4-20.4,26.4c-2,2-4.3,4.3-4.3,4.3s-4.8,4.8-8.6,5.8c8-8.9,14.1-22,14.2-39.1
				c0.1-16.8-0.1-35.8,0-53.3h3.8V28.3z"/>
			<path class="st1" d="M-772.1,83.3c3-7.8,9.2-12.5,19-13.4c1.1-0.1,3.6,0,3.6,0c7.1,0.4,13.6,4.3,19,10.6
				c4.1-6,10.5-9.7,19.7-10.6c1.3-0.1,2.4,0,2.4,0c14.5,1.6,23.4,12.3,23.3,23.8c0,1.7,0,35.5,0,35.5c-1,3.8-8.5,3.8-8.6-0.7
				c-0.2-11.5,0.3-23.7-0.2-34.8c-0.7-8.9-5.8-13.1-14.2-14.6c-1.4-0.2-3.7-0.2-4.8,0c-7.6,1.4-12,6.4-13.2,14.4
				c-0.6,11-0.1,23.1-0.2,34.6c0.2,5-7.8,5.2-8.6,1V98.2c0-11.1-4.4-17.8-14.2-19.2c-2.3-0.2-2.6-0.2-4.6,0
				c-11.9,1.4-14.7,11.8-14.2,25.7C-769.7,97.9-771.3,90.9-772.1,83.3"/>
			<path class="st0" d="M-772.1,83.3c0.9,7.6,2.4,14.6,4.1,21.4c2.8,10.3,6.8,19.3,11.8,27.4h-12h-42.5c-9.6-0.2-16.4-3.7-21.4-7.9
				c-5-4.2-10.4-13.8-10.3-23c-0.2-13.3,9-22.1,10.8-23.5c3.9-3.2,10-6.8,18.7-7.4c0,0,1.5-0.1,2.9,0c4.5,0.5,10.5,0.9,10.6,5.8
				c0,2.8-2.3,4.8-6.2,4.8c-3,0-1.9,0-7,0.2c-12.7,0.6-20.1,10.8-19,22.6c1,10.3,11.3,20.9,25.2,17.3c6.1-1.6,16.7-11.7,17.8-13
				C-781.8,100.9-777,92.1-772.1,83.3"/>
		</g>
	</g>
	<g>
		<path d="M-597.5,43.7c0-1,0.3-1.8,1-2.5c0.7-0.7,1.5-1,2.5-1s1.8,0.3,2.5,1s1,1.5,1,2.5V99c0,8.7-3.1,16.2-9.3,22.4
			c-6.2,6.2-13.7,9.3-22.4,9.3s-16.2-3.1-22.4-9.3c-6.2-6.2-9.3-13.7-9.3-22.4c0-8.7,3.1-16.2,9.3-22.4c6.2-6.2,13.6-9.3,22.4-9.3
			s16.2,3.1,22.4,9.3l2.2,2.2V43.7z M-597.5,99c0-6.8-2.4-12.6-7.2-17.4c-4.8-4.8-10.6-7.2-17.4-7.2s-12.6,2.4-17.4,7.2
			c-4.8,4.8-7.2,10.6-7.2,17.4s2.4,12.6,7.2,17.4c4.8,4.8,10.6,7.2,17.4,7.2s12.6-2.4,17.4-7.2C-599.9,111.7-597.5,105.8-597.5,99z"
			/>
		<path d="M-525.1,119.2c-7.6,7.7-15.8,11.5-24.6,11.5c-8.7,0-16.2-3.1-22.4-9.3c-6.2-6.2-9.3-13.7-9.3-22.4
			c0-8.7,3.1-16.2,9.3-22.4c6.2-6.2,13.6-9.3,22.4-9.3s16.2,3.1,22.4,9.3c6.2,6.2,9.3,13.7,9.3,22.4v28.2c0,1-0.3,1.8-1,2.5
			s-1.5,1-2.5,1s-1.8-0.3-2.5-1c-0.7-0.7-1-1.5-1-2.5V119.2z M-549.7,74.4c-6.8,0-12.6,2.4-17.4,7.2c-4.8,4.8-7.2,10.6-7.2,17.4
			s2.4,12.6,7.2,17.4c4.8,4.8,10.6,7.2,17.4,7.2s12.6-2.4,17.4-7.2c4.8-4.8,7.2-10.6,7.2-17.4c0-6.8-2.4-12.6-7.2-17.4
			C-537.1,76.8-543,74.4-549.7,74.4z"/>
		<path d="M-508.8,70.9c0-1,0.3-1.8,1-2.5s1.5-1,2.5-1s1.8,0.3,2.5,1s1,1.5,1,2.5v8c7.7-7.7,15.9-11.5,24.7-11.5
			c4.7,0,8.7,0.7,12.1,2.2c0.6,0.2,1.2,0.6,1.6,1.1c0.6,0.6,1,1.5,1,2.5c0,1-0.3,1.8-1,2.5s-1.5,1-2.5,1c-0.6,0-1.1-0.1-1.6-0.3
			c-2.6-1.3-5.8-1.9-9.6-1.9c-6.8,0-12.6,2.4-17.4,7.2c-4.8,4.8-7.2,10.6-7.2,17.4v28.2c0,1-0.3,1.8-1,2.5s-1.5,1-2.5,1
			s-1.8-0.3-2.5-1s-1-1.5-1-2.5V70.9z"/>
		<path d="M-447.6,94.8l41.5-27c0.5-0.3,1.2-0.5,1.9-0.5c1,0,1.8,0.3,2.5,1s1,1.5,1,2.5c0,1.2-0.4,2.1-1.1,2.7l-28.6,18.7l28.8,32.5
			c0.6,0.7,1,1.5,1,2.5c0,1-0.3,1.8-1,2.5s-1.5,1-2.5,1c-1,0-1.8-0.4-2.5-1.1l-29.8-33.5l-11,7.2v23.9c0,1-0.3,1.8-1,2.5
			c-0.7,0.7-1.5,1-2.5,1s-1.8-0.3-2.5-1c-0.7-0.7-1-1.5-1-2.5V43.6c0-1,0.3-1.8,1-2.5c0.7-0.7,1.5-1,2.5-1s1.8,0.3,2.5,1
			c0.7,0.7,1,1.5,1,2.5V94.8z"/>
		<path class="st4" d="M-384.6,127.2c0,1-0.3,1.8-1,2.5s-1.5,1-2.5,1c-1,0-1.8-0.3-2.5-1c-0.7-0.7-1-1.5-1-2.5V70.9
			c0-1,0.3-1.8,1-2.5c0.7-0.7,1.5-1,2.5-1c1,0,1.8,0.3,2.5,1s1,1.5,1,2.5v3.8c5.7-4.9,11.6-7.3,17.6-7.3c6.8,0,12.6,2.4,17.4,7.2
			c1.2,1.2,2.4,2.7,3.7,4.4c1.3-1.7,2.5-3.2,3.7-4.4c4.8-4.8,10.6-7.2,17.4-7.2s12.6,2.4,17.4,7.2c4.8,4.8,7.2,10.6,7.2,17.4v35.2
			c0,1-0.3,1.8-1,2.5s-1.5,1-2.5,1s-1.8-0.3-2.5-1s-1-1.5-1-2.5V92c0-4.9-1.7-9-5.2-12.4c-3.5-3.5-7.6-5.2-12.4-5.2
			c-4.8,0-9,1.7-12.4,5.2c-3.4,3.4-5.1,7.6-5.1,12.4v35.2c0,1-0.3,1.8-1,2.5s-1.5,1-2.5,1s-1.8-0.3-2.5-1s-1-1.5-1-2.5V92
			c0-4.9-1.7-9-5.1-12.4c-3.5-3.5-7.6-5.2-12.4-5.2c-4.8,0-9,1.7-12.4,5.2c-3.4,3.4-5.1,7.6-5.1,12.4V127.2z"/>
		<path class="st4" d="M-278.5,52.1c0,1.3-0.5,2.4-1.4,3.3c-0.9,0.9-2,1.4-3.3,1.4c-1.3,0-2.4-0.5-3.3-1.4c-0.9-0.9-1.4-2-1.4-3.3
			c0-1.3,0.5-2.4,1.4-3.3c0.9-0.9,2-1.4,3.3-1.4c1.3,0,2.4,0.5,3.3,1.4C-279,49.7-278.5,50.8-278.5,52.1z M-286.7,70.9
			c0-1,0.3-1.8,1-2.5c0.7-0.7,1.5-1,2.5-1c1,0,1.8,0.3,2.5,1c0.7,0.7,1,1.5,1,2.5v56.3c0,1-0.3,1.8-1,2.5c-0.7,0.7-1.5,1-2.5,1
			c-1,0-1.8-0.3-2.5-1c-0.7-0.7-1-1.5-1-2.5V70.9z"/>
		<path class="st4" d="M-264.5,70.9c0-1,0.3-1.8,1-2.5s1.5-1,2.5-1s1.8,0.3,2.5,1s1,1.5,1,2.5v8c7.7-7.7,15.9-11.5,24.7-11.5
			c4.7,0,8.7,0.7,12.1,2.2c0.6,0.2,1.2,0.6,1.6,1.1c0.6,0.6,1,1.5,1,2.5c0,1-0.3,1.8-1,2.5s-1.5,1-2.5,1c-0.6,0-1.1-0.1-1.6-0.3
			c-2.6-1.3-5.8-1.9-9.6-1.9c-6.8,0-12.6,2.4-17.4,7.2c-4.8,4.8-7.2,10.6-7.2,17.4v28.2c0,1-0.3,1.8-1,2.5s-1.5,1-2.5,1
			s-1.8-0.3-2.5-1s-1-1.5-1-2.5V70.9z"/>
		<path class="st4" d="M-154.1,119.2c-7.6,7.7-15.8,11.5-24.6,11.5c-8.7,0-16.2-3.1-22.4-9.3c-6.2-6.2-9.3-13.7-9.3-22.4
			c0-8.7,3.1-16.2,9.3-22.4c6.2-6.2,13.6-9.3,22.4-9.3s16.2,3.1,22.4,9.3c6.2,6.2,9.3,13.7,9.3,22.4v28.2c0,1-0.3,1.8-1,2.5
			s-1.5,1-2.5,1s-1.8-0.3-2.5-1c-0.7-0.7-1-1.5-1-2.5V119.2z M-178.7,74.4c-6.8,0-12.6,2.4-17.4,7.2c-4.8,4.8-7.2,10.6-7.2,17.4
			s2.4,12.6,7.2,17.4c4.8,4.8,10.6,7.2,17.4,7.2s12.6-2.4,17.4-7.2c4.8-4.8,7.2-10.6,7.2-17.4c0-6.8-2.4-12.6-7.2-17.4
			C-166.1,76.8-171.9,74.4-178.7,74.4z"/>
	</g>
</g>
<path class="st5" d="M-1328.6,88c0.1-14.4-11.1-26-26.8-27.8c0,0-0.1,0-0.1,0c-0.1,0-1.4-0.1-3,0c0,0-0.1,0-0.1,0
	c-8.1,0.7-14.7,3.6-19.5,8.5c-5.6-5.3-11.9-8.2-18.5-8.5c-0.7,0-2.9-0.2-4.3,0c-6.4,0.6-11.6,2.7-15.6,6.2c0.7-1.7,1.1-3.5,1.1-5.4
	c0-3.7,0-9.1,0-14.4l0-7.9V16.1c0-2.2-1.8-4-4-4h-3.8c-1.3,0-2.4,0.6-3.1,1.5c-0.7-0.9-1.9-1.5-3.1-1.5h-3.8c-1.3,0-2.4,0.6-3.1,1.5
	c-0.7-0.9-1.9-1.5-3.1-1.5h-3.8c-2.2,0-4,1.8-4,4c0,8.4,0,17.2,0,25.8c0,6.9,0,14,0,20.7c-2.8-1.5-6.3-1.9-8.8-2.1l-0.7-0.1
	c-0.1,0-0.1,0-0.2,0c-1.6-0.1-3.2,0-3.4,0c-7.8,0.6-15,3.4-20.9,8.3c-3.6,2.7-12.5,12.7-12.3,26.6c-0.1,10.4,5.8,21,11.7,26.1
	c2.3,1.9,4.7,3.6,7.3,4.9c-0.9,1-1.5,2.3-1.5,3.7v3.3c-1-0.2-2-0.3-3-0.3c-3.8,0-7.1,1.4-9.8,4c-2.7,2.7-4,6-4,9.8
	c0,3.8,1.4,7.1,4,9.8c2.7,2.7,6,4,9.8,4c3.8,0,7.1-1.4,9.8-4c0.5-0.5,1-1.1,1.4-1.7c0.4,0.6,0.9,1.2,1.4,1.7c2.7,2.7,6,4,9.8,4
	c1.9,0,3.6-0.3,5.3-1c0.9,0.7,2,1,3.1,1c1,0,2-0.3,2.8-0.8c0.8,0.5,1.8,0.8,2.8,0.8c1.4,0,2.8-0.6,3.8-1.6c1-1,1.6-2.4,1.6-3.8h6
	c0,1.4,0.6,2.8,1.6,3.8c1,1,2.4,1.6,3.8,1.6s2.8-0.6,3.8-1.6c1-1,1.6-2.4,1.6-3.8v-1.5l4.6,5.2c0.1,0.1,0.1,0.2,0.2,0.2
	c1,1,2.4,1.5,3.8,1.5c1,0,2-0.3,2.8-0.8c0.8,0.5,1.8,0.8,2.8,0.8c1.4,0,2.8-0.6,3.8-1.6c1-1,1.6-2.4,1.6-3.8h1.8
	c0,1.4,0.6,2.8,1.6,3.8c1,1,2.4,1.6,3.8,1.6s2.8-0.6,3.8-1.6c1-1,1.6-2.4,1.6-3.8h1.8c0,1.4,0.6,2.8,1.6,3.8c1,1,2.4,1.6,3.8,1.6
	c1.3,0,2.5-0.5,3.5-1.3c1,0.8,2.2,1.3,3.5,1.3c1.3,0,2.5-0.5,3.5-1.3c1,0.8,2.2,1.3,3.5,1.3c1.4,0,2.8-0.6,3.8-1.6s1.6-2.4,1.6-3.8
	c0,0,7.4-1.3,10,1.4c2.7,2.7,6,4,9.8,4c1.9,0,3.6-0.3,5.3-1c0.9,0.7,2,1,3.1,1c1.4,0,2.8-0.6,3.8-1.6s1.6-2.4,1.6-3.8v-8.4
	C-1328.3,143-1328.6,88-1328.6,88z"/>
<path class="st0" d="M-1439.6,22.6c1.5,0.4,4.7,0.4,6.2,0v-6.5h3.8v6.5c1.5,0.4,4.7,0.4,6.2,0v-6.5h3.8v22.6c0,7.4,0,16.8,0,22.3
	c0,4-2.8,7.7-4.8,11c-5.9,9.7-18.4,24.4-20.4,26.4c-2,2-4.3,4.3-4.3,4.3s-4.8,4.8-8.6,5.8c8-8.9,14.1-22,14.2-39.1
	c0.1-16.8-0.1-35.8,0-53.3h3.8V22.6z"/>
<path class="st1" d="M-1419.5,77.6c3-7.8,9.2-12.5,19-13.4c1.1-0.1,3.6,0,3.6,0c7.1,0.4,13.6,4.3,19,10.6c4.1-6,10.5-9.7,19.7-10.6
	c1.3-0.1,2.4,0,2.4,0c14.5,1.6,23.4,12.3,23.3,23.8c0,1.7,0,35.5,0,35.5c-1,3.8-8.5,3.8-8.6-0.7c-0.2-11.5,0.3-23.7-0.2-34.8
	c-0.7-8.9-5.8-13.1-14.2-14.6c-1.4-0.2-3.7-0.2-4.8,0c-7.6,1.4-12,6.4-13.2,14.4c-0.6,11-0.1,23.1-0.2,34.6c0.2,5-7.8,5.2-8.6,1
	V92.5c0-11.1-4.4-17.8-14.2-19.2c-2.3-0.2-2.6-0.2-4.6,0c-11.9,1.4-14.7,11.8-14.2,25.7C-1417.1,92.2-1418.6,85.2-1419.5,77.6"/>
<path class="st0" d="M-1419.5,77.6c0.9,7.6,2.4,14.6,4.1,21.4c2.8,10.3,6.8,19.3,11.8,27.4h-12h-42.5c-9.6-0.2-16.4-3.7-21.4-7.9
	c-5-4.2-10.4-13.8-10.3-23c-0.2-13.3,9-22.1,10.8-23.5c3.9-3.2,10-6.8,18.7-7.4c0,0,1.5-0.1,2.9,0c4.5,0.5,10.5,0.9,10.6,5.8
	c0,2.8-2.3,4.8-6.2,4.8c-3,0-1.9,0-7,0.2c-12.7,0.6-20.1,10.8-19,22.6c1,10.3,11.3,20.9,25.2,17.3c6.1-1.6,16.7-11.7,17.8-13
	C-1429.2,95.2-1424.3,86.4-1419.5,77.6"/>
<g>
	<path d="M-1472.3,130c0-0.4,0.1-0.7,0.4-1c0.3-0.3,0.6-0.4,1-0.4c0.4,0,0.7,0.1,1,0.4c0.3,0.3,0.4,0.6,0.4,1v16.8
		c0,2.7-1,5-2.9,6.9c-1.9,1.9-4.2,2.9-6.9,2.9c-2.7,0-5-1-6.9-2.9c-1.9-1.9-2.9-4.2-2.9-6.9s1-5,2.9-6.9c1.9-1.9,4.2-2.9,6.9-2.9
		c2.7,0,5,1,6.9,2.9c0,0,0,0,0.1,0.1V130z M-1472.3,146.8c0-1.9-0.7-3.6-2-5c-1.4-1.4-3-2-5-2c-1.9,0-3.6,0.7-5,2c-1.4,1.4-2,3-2,5
		c0,1.9,0.7,3.6,2,5c1.4,1.4,3,2,5,2c1.9,0,3.6-0.7,5-2C-1473,150.4-1472.3,148.7-1472.3,146.8z"/>
	<path d="M-1449.9,153.7c-2,2-4.3,2.9-7,2.9c-2.7,0-5-1-6.9-2.9c-1.9-1.9-2.9-4.2-2.9-6.9s1-5,2.9-6.9c1.9-1.9,4.2-2.9,6.9-2.9
		c2.7,0,5,1,6.9,2.9c1.9,1.9,2.9,4.2,2.9,6.9v8.4c0,0.4-0.1,0.7-0.4,1c-0.3,0.3-0.6,0.4-1,0.4c-0.4,0-0.7-0.1-1-0.4
		c-0.3-0.3-0.4-0.6-0.4-1V153.7z M-1456.9,139.8c-1.9,0-3.6,0.7-5,2c-1.4,1.4-2,3-2,5c0,1.9,0.7,3.6,2,5c1.4,1.4,3,2,5,2
		c1.9,0,3.6-0.7,5-2c1.4-1.4,2-3,2-5c0-1.9-0.7-3.6-2-5C-1453.3,140.5-1454.9,139.8-1456.9,139.8z"/>
	<path d="M-1444.3,138.4c0-0.4,0.1-0.7,0.4-1c0.3-0.3,0.6-0.4,1-0.4c0.4,0,0.7,0.1,1,0.4c0.3,0.3,0.4,0.6,0.4,1v1.5
		c2-2,4.3-2.9,7-2.9c1.4,0,2.6,0.2,3.8,0.7c0.2,0.1,0.4,0.2,0.6,0.4c0.3,0.3,0.4,0.6,0.4,1c0,0.4-0.1,0.7-0.4,1
		c-0.3,0.3-0.6,0.4-1,0.4c-0.2,0-0.4,0-0.6-0.1c-0.8-0.4-1.7-0.5-2.7-0.5c-1.9,0-3.6,0.7-5,2c-1.4,1.4-2,3-2,5v8.4
		c0,0.4-0.1,0.7-0.4,1c-0.3,0.3-0.6,0.4-1,0.4c-0.4,0-0.7-0.1-1-0.4c-0.3-0.3-0.4-0.6-0.4-1V138.4z"/>
	<path d="M-1424.7,144.9l11.8-7.7c0.2-0.1,0.5-0.2,0.8-0.2c0.4,0,0.7,0.1,1,0.4c0.3,0.3,0.4,0.6,0.4,1c0,0.4-0.1,0.7-0.4,1
		c-0.1,0.1-0.1,0.1-0.2,0.2l-8.1,5.3l8.3,9.4c0.3,0.3,0.4,0.6,0.4,1c0,0.4-0.1,0.7-0.4,1c-0.3,0.3-0.6,0.4-1,0.4
		c-0.4,0-0.7-0.1-1-0.4l-8.7-9.8l-2.9,1.9v6.9c0,0.4-0.1,0.7-0.4,1c-0.3,0.3-0.6,0.4-1,0.4c-0.4,0-0.7-0.1-1-0.4
		c-0.3-0.3-0.4-0.6-0.4-1V130c0-0.4,0.1-0.7,0.4-1c0.3-0.3,0.6-0.4,1-0.4c0.4,0,0.7,0.1,1,0.4c0.3,0.3,0.4,0.6,0.4,1V144.9z"/>
	<path class="st4" d="M-1405.1,155.2c0,0.4-0.1,0.7-0.4,1c-0.3,0.3-0.6,0.4-1,0.4c-0.4,0-0.7-0.1-1-0.4c-0.3-0.3-0.4-0.6-0.4-1
		v-16.8c0-0.4,0.1-0.7,0.4-1c0.3-0.3,0.6-0.4,1-0.4c0.4,0,0.7,0.1,1,0.4c0.3,0.3,0.4,0.6,0.4,1v0.4c1.4-1.2,3-1.8,4.9-1.8
		c2.1,0,3.9,0.8,5.4,2.3c0.3,0.3,0.6,0.6,0.9,1c0.3-0.3,0.5-0.7,0.9-1c1.5-1.5,3.3-2.3,5.4-2.3s3.9,0.8,5.4,2.3
		c1.5,1.5,2.3,3.3,2.3,5.4v10.5c0,0.4-0.1,0.7-0.4,1c-0.3,0.3-0.6,0.4-1,0.4c-0.4,0-0.7-0.1-1-0.4c-0.3-0.3-0.4-0.6-0.4-1v-10.5
		c0-1.4-0.5-2.5-1.4-3.5c-1-1-2.1-1.4-3.5-1.4s-2.5,0.5-3.5,1.4c-1,1-1.4,2.1-1.4,3.5v10.5c0,0.4-0.1,0.7-0.4,1
		c-0.3,0.3-0.6,0.4-1,0.4c-0.4,0-0.7-0.1-1-0.4c-0.3-0.3-0.4-0.6-0.4-1v-10.5c0-1.4-0.5-2.5-1.4-3.5c-1-1-2.1-1.4-3.5-1.4
		c-1.4,0-2.5,0.5-3.5,1.4c-1,1-1.4,2.1-1.4,3.5V155.2z"/>
	<path class="st4" d="M-1372.5,132.8c0,0.5-0.2,0.9-0.5,1.2c-0.3,0.3-0.8,0.5-1.2,0.5c-0.5,0-0.9-0.2-1.2-0.5
		c-0.3-0.3-0.5-0.8-0.5-1.2c0-0.5,0.2-0.9,0.5-1.2c0.3-0.3,0.8-0.5,1.2-0.5c0.5,0,0.9,0.2,1.2,0.5
		C-1372.7,131.9-1372.5,132.3-1372.5,132.8z M-1375.7,138.4c0-0.4,0.1-0.7,0.4-1c0.3-0.3,0.6-0.4,1-0.4c0.4,0,0.7,0.1,1,0.4
		c0.3,0.3,0.4,0.6,0.4,1v16.8c0,0.4-0.1,0.7-0.4,1c-0.3,0.3-0.6,0.4-1,0.4c-0.4,0-0.7-0.1-1-0.4c-0.3-0.3-0.4-0.6-0.4-1V138.4z"/>
	<path class="st4" d="M-1368.7,138.4c0-0.4,0.1-0.7,0.4-1c0.3-0.3,0.6-0.4,1-0.4c0.4,0,0.7,0.1,1,0.4c0.3,0.3,0.4,0.6,0.4,1v1.5
		c2-2,4.3-2.9,7-2.9c1.4,0,2.6,0.2,3.8,0.7c0.2,0.1,0.4,0.2,0.6,0.4c0.3,0.3,0.4,0.6,0.4,1c0,0.4-0.1,0.7-0.4,1
		c-0.3,0.3-0.6,0.4-1,0.4c-0.2,0-0.4,0-0.6-0.1c-0.8-0.4-1.7-0.5-2.7-0.5c-1.9,0-3.6,0.7-5,2c-1.4,1.4-2,3-2,5v8.4
		c0,0.4-0.1,0.7-0.4,1c-0.3,0.3-0.6,0.4-1,0.4c-0.4,0-0.7-0.1-1-0.4c-0.3-0.3-0.4-0.6-0.4-1V138.4z"/>
	<path class="st4" d="M-1335.1,153.7c-2,2-4.3,2.9-7,2.9c-2.7,0-5-1-6.9-2.9c-1.9-1.9-2.9-4.2-2.9-6.9s1-5,2.9-6.9
		c1.9-1.9,4.2-2.9,6.9-2.9c2.7,0,5,1,6.9,2.9c1.9,1.9,2.9,4.2,2.9,6.9v8.4c0,0.4-0.1,0.7-0.4,1c-0.3,0.3-0.6,0.4-1,0.4
		c-0.4,0-0.7-0.1-1-0.4c-0.3-0.3-0.4-0.6-0.4-1V153.7z M-1342.1,139.8c-1.9,0-3.6,0.7-5,2c-1.4,1.4-2,3-2,5c0,1.9,0.7,3.6,2,5
		c1.4,1.4,3,2,5,2c1.9,0,3.6-0.7,5-2c1.4-1.4,2-3,2-5c0-1.9-0.7-3.6-2-5C-1338.5,140.5-1340.1,139.8-1342.1,139.8z"/>
</g>
<g>
	<path d="M-1249,129.8c0-0.4,0.1-0.7,0.4-1c0.3-0.3,0.6-0.4,1-0.4c0.4,0,0.7,0.1,1,0.4s0.4,0.6,0.4,1v16.8c0,2.7-1,5-2.9,6.9
		c-1.9,1.9-4.2,2.9-6.9,2.9s-5-1-6.9-2.9c-1.9-1.9-2.9-4.2-2.9-6.9s1-5,2.9-6.9c1.9-1.9,4.2-2.9,6.9-2.9s5,1,6.9,2.9
		c0,0,0,0,0.1,0.1V129.8z M-1249,146.7c0-1.9-0.7-3.6-2-5c-1.4-1.4-3-2-5-2c-1.9,0-3.6,0.7-5,2c-1.4,1.4-2,3-2,5c0,1.9,0.7,3.6,2,5
		c1.4,1.4,3,2,5,2c1.9,0,3.6-0.7,5-2C-1249.7,150.3-1249,148.6-1249,146.7z"/>
	<path d="M-1226.6,153.5c-2,2-4.3,2.9-7,2.9s-5-1-6.9-2.9c-1.9-1.9-2.9-4.2-2.9-6.9s1-5,2.9-6.9c1.9-1.9,4.2-2.9,6.9-2.9
		s5,1,6.9,2.9c1.9,1.9,2.9,4.2,2.9,6.9v8.4c0,0.4-0.1,0.7-0.4,1c-0.3,0.3-0.6,0.4-1,0.4c-0.4,0-0.7-0.1-1-0.4
		c-0.3-0.3-0.4-0.6-0.4-1V153.5z M-1233.6,139.7c-1.9,0-3.6,0.7-5,2c-1.4,1.4-2,3-2,5c0,1.9,0.7,3.6,2,5c1.4,1.4,3,2,5,2
		c1.9,0,3.6-0.7,5-2c1.4-1.4,2-3,2-5c0-1.9-0.7-3.6-2-5C-1230,140.4-1231.7,139.7-1233.6,139.7z"/>
	<path d="M-1221,138.3c0-0.4,0.1-0.7,0.4-1c0.3-0.3,0.6-0.4,1-0.4s0.7,0.1,1,0.4c0.3,0.3,0.4,0.6,0.4,1v1.5c2-2,4.3-2.9,7-2.9
		c1.4,0,2.6,0.2,3.8,0.7c0.2,0.1,0.4,0.2,0.6,0.4c0.3,0.3,0.4,0.6,0.4,1c0,0.4-0.1,0.7-0.4,1c-0.3,0.3-0.6,0.4-1,0.4
		c-0.2,0-0.4,0-0.6-0.1c-0.8-0.4-1.7-0.5-2.7-0.5c-1.9,0-3.6,0.7-5,2c-1.4,1.4-2,3-2,5v8.4c0,0.4-0.1,0.7-0.4,1
		c-0.3,0.3-0.6,0.4-1,0.4s-0.7-0.1-1-0.4c-0.3-0.3-0.4-0.6-0.4-1V138.3z"/>
	<path d="M-1201.4,144.8l11.8-7.7c0.2-0.1,0.5-0.2,0.8-0.2c0.4,0,0.7,0.1,1,0.4c0.3,0.3,0.4,0.6,0.4,1c0,0.4-0.1,0.7-0.4,1
		c-0.1,0.1-0.1,0.1-0.2,0.2l-8.1,5.3l8.3,9.4c0.3,0.3,0.4,0.6,0.4,1c0,0.4-0.1,0.7-0.4,1c-0.3,0.3-0.6,0.4-1,0.4s-0.7-0.1-1-0.4
		l-8.7-9.8l-2.9,1.9v6.9c0,0.4-0.1,0.7-0.4,1c-0.3,0.3-0.6,0.4-1,0.4s-0.7-0.1-1-0.4c-0.3-0.3-0.4-0.6-0.4-1v-25.2
		c0-0.4,0.1-0.7,0.4-1s0.6-0.4,1-0.4s0.7,0.1,1,0.4c0.3,0.3,0.4,0.6,0.4,1V144.8z"/>
	<path class="st4" d="M-1181.8,155.1c0,0.4-0.1,0.7-0.4,1c-0.3,0.3-0.6,0.4-1,0.4c-0.4,0-0.7-0.1-1-0.4c-0.3-0.3-0.4-0.6-0.4-1
		v-16.8c0-0.4,0.1-0.7,0.4-1c0.3-0.3,0.6-0.4,1-0.4c0.4,0,0.7,0.1,1,0.4c0.3,0.3,0.4,0.6,0.4,1v0.4c1.4-1.2,3-1.8,4.9-1.8
		c2.1,0,3.9,0.8,5.4,2.3c0.3,0.3,0.6,0.6,0.9,1c0.3-0.3,0.5-0.7,0.9-1c1.5-1.5,3.3-2.3,5.4-2.3s3.9,0.8,5.4,2.3
		c1.5,1.5,2.3,3.3,2.3,5.4v10.5c0,0.4-0.1,0.7-0.4,1c-0.3,0.3-0.6,0.4-1,0.4c-0.4,0-0.7-0.1-1-0.4c-0.3-0.3-0.4-0.6-0.4-1v-10.5
		c0-1.4-0.5-2.5-1.4-3.5c-1-1-2.1-1.4-3.5-1.4s-2.5,0.5-3.5,1.4c-1,1-1.4,2.1-1.4,3.5v10.5c0,0.4-0.1,0.7-0.4,1
		c-0.3,0.3-0.6,0.4-1,0.4s-0.7-0.1-1-0.4c-0.3-0.3-0.4-0.6-0.4-1v-10.5c0-1.4-0.5-2.5-1.4-3.5c-1-1-2.1-1.4-3.5-1.4
		s-2.5,0.5-3.5,1.4c-1,1-1.4,2.1-1.4,3.5V155.1z"/>
	<path class="st4" d="M-1149.3,132.7c0,0.5-0.2,0.9-0.5,1.2c-0.3,0.3-0.8,0.5-1.2,0.5s-0.9-0.2-1.2-0.5c-0.3-0.3-0.5-0.8-0.5-1.2
		c0-0.5,0.2-0.9,0.5-1.2c0.3-0.3,0.8-0.5,1.2-0.5s0.9,0.2,1.2,0.5C-1149.4,131.8-1149.3,132.2-1149.3,132.7z M-1152.4,138.3
		c0-0.4,0.1-0.7,0.4-1c0.3-0.3,0.6-0.4,1-0.4c0.4,0,0.7,0.1,1,0.4c0.3,0.3,0.4,0.6,0.4,1v16.8c0,0.4-0.1,0.7-0.4,1
		c-0.3,0.3-0.6,0.4-1,0.4c-0.4,0-0.7-0.1-1-0.4c-0.3-0.3-0.4-0.6-0.4-1V138.3z"/>
	<path class="st4" d="M-1145.4,138.3c0-0.4,0.1-0.7,0.4-1c0.3-0.3,0.6-0.4,1-0.4c0.4,0,0.7,0.1,1,0.4c0.3,0.3,0.4,0.6,0.4,1v1.5
		c2-2,4.3-2.9,7-2.9c1.4,0,2.6,0.2,3.8,0.7c0.2,0.1,0.4,0.2,0.6,0.4c0.3,0.3,0.4,0.6,0.4,1c0,0.4-0.1,0.7-0.4,1
		c-0.3,0.3-0.6,0.4-1,0.4c-0.2,0-0.4,0-0.6-0.1c-0.8-0.4-1.7-0.5-2.7-0.5c-1.9,0-3.6,0.7-5,2c-1.4,1.4-2,3-2,5v8.4
		c0,0.4-0.1,0.7-0.4,1c-0.3,0.3-0.6,0.4-1,0.4c-0.4,0-0.7-0.1-1-0.4c-0.3-0.3-0.4-0.6-0.4-1V138.3z"/>
	<path class="st4" d="M-1111.8,153.5c-2,2-4.3,2.9-7,2.9c-2.7,0-5-1-6.9-2.9c-1.9-1.9-2.9-4.2-2.9-6.9s1-5,2.9-6.9
		c1.9-1.9,4.2-2.9,6.9-2.9c2.7,0,5,1,6.9,2.9c1.9,1.9,2.9,4.2,2.9,6.9v8.4c0,0.4-0.1,0.7-0.4,1c-0.3,0.3-0.6,0.4-1,0.4
		c-0.4,0-0.7-0.1-1-0.4c-0.3-0.3-0.4-0.6-0.4-1V153.5z M-1118.8,139.7c-1.9,0-3.6,0.7-5,2c-1.4,1.4-2,3-2,5c0,1.9,0.7,3.6,2,5
		c1.4,1.4,3,2,5,2c1.9,0,3.6-0.7,5-2c1.4-1.4,2-3,2-5c0-1.9-0.7-3.6-2-5C-1115.2,140.4-1116.9,139.7-1118.8,139.7z"/>
</g>
<g>
	<g>
		<g>
			<path class="st2" d="M69.8,28.5c1.5,0.4,4.7,0.4,6.2,0V22h3.8v6.5c1.5,0.4,4.7,0.4,6.2,0V22h3.8v22.6c0,7.4,0,16.8,0,22.3
				c0,4-2.8,7.7-4.8,11c-5.9,9.7-18.4,24.4-20.4,26.4c-2,2-4.3,4.3-4.3,4.3s-4.8,4.8-8.6,5.8c8-8.9,14.1-22,14.2-39.1
				c0.1-16.8-0.1-35.8,0-53.3h3.8V28.5z"/>
			<path class="st1" d="M89.9,83.5c3-7.8,9.2-12.5,19-13.4c1.1-0.1,3.6,0,3.6,0c7.1,0.4,13.6,4.3,19,10.6c4.1-6,10.5-9.7,19.7-10.6
				c1.3-0.1,2.4,0,2.4,0c14.5,1.6,23.4,12.3,23.3,23.8c0,1.7,0,35.5,0,35.5c-1,3.8-8.5,3.8-8.6-0.7c-0.2-11.5,0.3-23.7-0.2-34.8
				c-0.7-8.9-5.8-13.1-14.2-14.6c-1.4-0.2-3.7-0.2-4.8,0c-7.6,1.4-12,6.4-13.2,14.4c-0.6,11-0.1,23.1-0.2,34.6c0.2,5-7.8,5.2-8.6,1
				V98.4c0-11.1-4.4-17.8-14.2-19.2c-2.3-0.2-2.6-0.2-4.6,0C96.2,80.6,93.4,91,94,104.9C92.3,98.1,90.8,91.1,89.9,83.5"/>
			<path class="st2" d="M89.9,83.5c0.9,7.6,2.4,14.6,4.1,21.4c2.8,10.3,6.8,19.3,11.8,27.4h-12H51.3c-9.6-0.2-16.4-3.7-21.4-7.9
				c-5-4.2-10.4-13.8-10.3-23c-0.2-13.3,9-22.1,10.8-23.5c3.9-3.2,10-6.8,18.7-7.4c0,0,1.5-0.1,2.9,0c4.5,0.5,10.5,0.9,10.6,5.8
				c0,2.8-2.3,4.8-6.2,4.8c-3,0-1.9,0-7,0.2c-12.7,0.6-20.1,10.8-19,22.6c1,10.3,11.3,20.9,25.2,17.3c6.1-1.6,16.7-11.7,17.8-13
				C80.2,101.1,85.1,92.3,89.9,83.5"/>
		</g>
	</g>
	<g>
		<path class="st3" d="M264.5,43.9c0-1,0.3-1.8,1-2.5c0.7-0.7,1.5-1,2.5-1s1.8,0.3,2.5,1s1,1.5,1,2.5v55.3c0,8.7-3.1,16.2-9.3,22.4
			c-6.2,6.2-13.7,9.3-22.4,9.3s-16.2-3.1-22.4-9.3c-6.2-6.2-9.3-13.7-9.3-22.4c0-8.7,3.1-16.2,9.3-22.4c6.2-6.2,13.6-9.3,22.4-9.3
			s16.2,3.1,22.4,9.3l2.2,2.2V43.9z M264.5,99.2c0-6.8-2.4-12.6-7.2-17.4c-4.8-4.8-10.6-7.2-17.4-7.2s-12.6,2.4-17.4,7.2
			c-4.8,4.8-7.2,10.6-7.2,17.4c0,6.8,2.4,12.6,7.2,17.4c4.8,4.8,10.6,7.2,17.4,7.2s12.6-2.4,17.4-7.2
			C262.1,111.8,264.5,106,264.5,99.2z"/>
		<path class="st3" d="M336.9,119.4c-7.6,7.7-15.8,11.5-24.6,11.5c-8.7,0-16.2-3.1-22.4-9.3c-6.2-6.2-9.3-13.7-9.3-22.4
			c0-8.7,3.1-16.2,9.3-22.4c6.2-6.2,13.6-9.3,22.4-9.3s16.2,3.1,22.4,9.3c6.2,6.2,9.3,13.7,9.3,22.4v28.2c0,1-0.3,1.8-1,2.5
			s-1.5,1-2.5,1s-1.8-0.3-2.5-1c-0.7-0.7-1-1.5-1-2.5V119.4z M312.3,74.5c-6.8,0-12.6,2.4-17.4,7.2c-4.8,4.8-7.2,10.6-7.2,17.4
			c0,6.8,2.4,12.6,7.2,17.4c4.8,4.8,10.6,7.2,17.4,7.2s12.6-2.4,17.4-7.2c4.8-4.8,7.2-10.6,7.2-17.4c0-6.8-2.4-12.6-7.2-17.4
			C324.9,77,319.1,74.5,312.3,74.5z"/>
		<path class="st3" d="M353.2,71c0-1,0.3-1.8,1-2.5s1.5-1,2.5-1s1.8,0.3,2.5,1s1,1.5,1,2.5v8c7.7-7.7,15.9-11.5,24.7-11.5
			c4.7,0,8.7,0.7,12.1,2.2c0.6,0.2,1.2,0.6,1.6,1.1c0.6,0.6,1,1.5,1,2.5c0,1-0.3,1.8-1,2.5s-1.5,1-2.5,1c-0.6,0-1.1-0.1-1.6-0.3
			c-2.6-1.3-5.8-1.9-9.6-1.9c-6.8,0-12.6,2.4-17.4,7.2c-4.8,4.8-7.2,10.6-7.2,17.4v28.2c0,1-0.3,1.8-1,2.5s-1.5,1-2.5,1
			s-1.8-0.3-2.5-1s-1-1.5-1-2.5V71z"/>
		<path class="st3" d="M414.4,95L456,68c0.5-0.3,1.2-0.5,1.9-0.5c1,0,1.8,0.3,2.5,1s1,1.5,1,2.5c0,1.2-0.4,2.1-1.1,2.7l-28.6,18.7
			l28.8,32.5c0.6,0.7,1,1.5,1,2.5c0,1-0.3,1.8-1,2.5s-1.5,1-2.5,1c-1,0-1.8-0.4-2.5-1.1l-29.8-33.5l-11,7.2v23.9c0,1-0.3,1.8-1,2.5
			c-0.7,0.7-1.5,1-2.5,1s-1.8-0.3-2.5-1c-0.7-0.7-1-1.5-1-2.5V43.8c0-1,0.3-1.8,1-2.5c0.7-0.7,1.5-1,2.5-1s1.8,0.3,2.5,1
			c0.7,0.7,1,1.5,1,2.5V95z"/>
		<path class="st4" d="M477.5,127.4c0,1-0.3,1.8-1,2.5s-1.5,1-2.5,1c-1,0-1.8-0.3-2.5-1c-0.7-0.7-1-1.5-1-2.5V71c0-1,0.3-1.8,1-2.5
			c0.7-0.7,1.5-1,2.5-1c1,0,1.8,0.3,2.5,1s1,1.5,1,2.5v3.8c5.7-4.9,11.6-7.3,17.6-7.3c6.8,0,12.6,2.4,17.4,7.2
			c1.2,1.2,2.4,2.7,3.7,4.4c1.3-1.7,2.5-3.2,3.7-4.4c4.8-4.8,10.6-7.2,17.4-7.2s12.6,2.4,17.4,7.2c4.8,4.8,7.2,10.6,7.2,17.4v35.2
			c0,1-0.3,1.8-1,2.5s-1.5,1-2.5,1s-1.8-0.3-2.5-1s-1-1.5-1-2.5V92.2c0-4.9-1.7-9-5.2-12.4c-3.5-3.5-7.6-5.2-12.4-5.2
			c-4.8,0-9,1.7-12.4,5.2c-3.4,3.4-5.1,7.6-5.1,12.4v35.2c0,1-0.3,1.8-1,2.5s-1.5,1-2.5,1s-1.8-0.3-2.5-1s-1-1.5-1-2.5V92.2
			c0-4.9-1.7-9-5.1-12.4c-3.5-3.5-7.6-5.2-12.4-5.2c-4.8,0-9,1.7-12.4,5.2c-3.4,3.4-5.1,7.6-5.1,12.4V127.4z"/>
		<path class="st4" d="M583.5,52.3c0,1.3-0.5,2.4-1.4,3.3c-0.9,0.9-2,1.4-3.3,1.4c-1.3,0-2.4-0.5-3.3-1.4c-0.9-0.9-1.4-2-1.4-3.3
			c0-1.3,0.5-2.4,1.4-3.3c0.9-0.9,2-1.4,3.3-1.4c1.3,0,2.4,0.5,3.3,1.4C583,49.9,583.5,51,583.5,52.3z M575.3,71c0-1,0.3-1.8,1-2.5
			c0.7-0.7,1.5-1,2.5-1c1,0,1.8,0.3,2.5,1c0.7,0.7,1,1.5,1,2.5v56.3c0,1-0.3,1.8-1,2.5c-0.7,0.7-1.5,1-2.5,1c-1,0-1.8-0.3-2.5-1
			c-0.7-0.7-1-1.5-1-2.5V71z"/>
		<path class="st4" d="M597.5,71c0-1,0.3-1.8,1-2.5s1.5-1,2.5-1s1.8,0.3,2.5,1s1,1.5,1,2.5v8c7.7-7.7,15.9-11.5,24.7-11.5
			c4.7,0,8.7,0.7,12.1,2.2c0.6,0.2,1.2,0.6,1.6,1.1c0.6,0.6,1,1.5,1,2.5c0,1-0.3,1.8-1,2.5s-1.5,1-2.5,1c-0.6,0-1.1-0.1-1.6-0.3
			c-2.6-1.3-5.8-1.9-9.6-1.9c-6.8,0-12.6,2.4-17.4,7.2c-4.8,4.8-7.2,10.6-7.2,17.4v28.2c0,1-0.3,1.8-1,2.5s-1.5,1-2.5,1
			s-1.8-0.3-2.5-1s-1-1.5-1-2.5V71z"/>
		<path class="st4" d="M707.9,119.4c-7.6,7.7-15.8,11.5-24.6,11.5c-8.7,0-16.2-3.1-22.4-9.3c-6.2-6.2-9.3-13.7-9.3-22.4
			c0-8.7,3.1-16.2,9.3-22.4c6.2-6.2,13.6-9.3,22.4-9.3s16.2,3.1,22.4,9.3c6.2,6.2,9.3,13.7,9.3,22.4v28.2c0,1-0.3,1.8-1,2.5
			s-1.5,1-2.5,1s-1.8-0.3-2.5-1c-0.7-0.7-1-1.5-1-2.5V119.4z M683.3,74.5c-6.8,0-12.6,2.4-17.4,7.2c-4.8,4.8-7.2,10.6-7.2,17.4
			c0,6.8,2.4,12.6,7.2,17.4c4.8,4.8,10.6,7.2,17.4,7.2s12.6-2.4,17.4-7.2c4.8-4.8,7.2-10.6,7.2-17.4c0-6.8-2.4-12.6-7.2-17.4
			C695.9,77,690.1,74.5,683.3,74.5z"/>
	</g>
</g>
</svg>
